<?xml version="1.0" standalone="no"?>
    <!DOCTYPE svg PUBLIC "-//W3C//DTD SVG 1.1//EN" "http://www.w3.org/Graphics/SVG/1.1/DTD/svg11.dtd">
<svg xmlns="http://www.w3.org/2000/svg" version="1.1" width="1920.000000" height="1080.000000">
<polygon points="699.666443,477.189117 693.881836,486.476654 672.616638,430.603790 679.677307,429.125854 "
style="fill:rgb(255,255,255); stroke:black;stroke-width:1.000000" />
<polygon points="701.125366,443.824921 699.989502,446.516113 712.792908,479.912994 712.911377,477.584167 "
style="fill:rgb(255,255,255); stroke:black;stroke-width:1.000000" />
<polygon points="704.113281,485.721832 688.260620,440.618835 672.616638,430.603790 693.881836,486.476654 "
style="fill:rgb(255,255,255); stroke:black;stroke-width:1.000000" />
<polygon points="712.911377,477.584167 712.792908,479.912994 735.018188,510.076050 739.587524,504.976929 "
style="fill:rgb(255,255,255); stroke:black;stroke-width:1.000000" />
<polygon points="712.792908,479.912994 699.989502,446.516113 688.260620,440.618835 704.113281,485.721832 "
style="fill:rgb(255,255,255); stroke:black;stroke-width:1.000000" />
<polygon points="679.677307,429.125854 672.616638,430.603790 690.709900,393.389954 703.582581,392.458527 "
style="fill:rgb(255,255,255); stroke:black;stroke-width:1.000000" />
<polygon points="730.333069,523.961426 704.113281,485.721832 693.881836,486.476654 732.808899,534.167236 "
style="fill:rgb(255,255,255); stroke:black;stroke-width:1.000000" />
<polygon points="711.486145,425.057373 708.699707,425.743591 699.989502,446.516113 701.125366,443.824921 "
style="fill:rgb(255,255,255); stroke:black;stroke-width:1.000000" />
<polygon points="729.598633,469.588440 719.089050,462.497009 701.125366,443.824921 712.911377,477.584167 "
style="fill:rgb(255,255,255); stroke:black;stroke-width:1.000000" />
<polygon points="735.018188,510.076050 712.792908,479.912994 704.113281,485.721832 730.333069,523.961426 "
style="fill:rgb(255,255,255); stroke:black;stroke-width:1.000000" />
<polygon points="740.109924,485.538513 729.598633,469.588440 712.911377,477.584167 739.587524,504.976929 "
style="fill:rgb(255,255,255); stroke:black;stroke-width:1.000000" />
<polygon points="719.089050,462.497009 722.320557,449.978821 711.486145,425.057373 701.125366,443.824921 "
style="fill:rgb(255,255,255); stroke:black;stroke-width:1.000000" />
<polygon points="699.989502,446.516113 708.699707,425.743591 698.055847,412.155487 688.260620,440.618835 "
style="fill:rgb(255,255,255); stroke:black;stroke-width:1.000000" />
<polygon points="688.260620,440.618835 698.055847,412.155487 690.709900,393.389954 672.616638,430.603790 "
style="fill:rgb(255,255,255); stroke:black;stroke-width:1.000000" />
<polygon points="711.486145,425.057373 722.320557,449.978821 733.210205,437.711884 "
style="fill:rgb(255,255,255); stroke:black;stroke-width:1.000000" />
<polygon points="733.210205,437.711884 729.674927,439.170135 708.699707,425.743591 711.486145,425.057373 "
style="fill:rgb(255,255,255); stroke:black;stroke-width:1.000000" />
<polygon points="719.089050,462.497009 729.598633,469.588440 735.500305,461.479950 722.320557,449.978821 "
style="fill:rgb(255,255,255); stroke:black;stroke-width:1.000000" />
<polygon points="750.457581,503.143280 740.109924,485.538513 739.587524,504.976929 755.254578,527.523865 "
style="fill:rgb(255,255,255); stroke:black;stroke-width:1.000000" />
<polygon points="739.587524,504.976929 735.018188,510.076050 749.238586,534.382629 755.254578,527.523865 "
style="fill:rgb(255,255,255); stroke:black;stroke-width:1.000000" />
<polygon points="703.582581,392.458527 690.709900,393.389954 721.015686,413.788239 742.028809,409.170532 "
style="fill:rgb(255,255,255); stroke:black;stroke-width:1.000000" />
<polygon points="729.598633,469.588440 740.109924,485.538513 745.210510,478.224274 735.500305,461.479950 "
style="fill:rgb(255,255,255); stroke:black;stroke-width:1.000000" />
<polygon points="740.109924,485.538513 750.457581,503.143280 758.133667,495.497192 745.210510,478.224274 "
style="fill:rgb(255,255,255); stroke:black;stroke-width:1.000000" />
<polygon points="735.500305,461.479950 743.416016,454.174255 733.210205,437.711884 722.320557,449.978821 "
style="fill:rgb(255,255,255); stroke:black;stroke-width:1.000000" />
<polygon points="749.238586,534.382629 735.018188,510.076050 730.333069,523.961426 752.561584,553.714111 "
style="fill:rgb(255,255,255); stroke:black;stroke-width:1.000000" />
<polygon points="708.699707,425.743591 729.674927,439.170135 721.291260,429.715118 698.055847,412.155487 "
style="fill:rgb(255,255,255); stroke:black;stroke-width:1.000000" />
<polygon points="750.457581,503.143280 755.254578,527.523865 775.590820,524.607971 767.053772,516.925476 "
style="fill:rgb(255,255,255); stroke:black;stroke-width:1.000000" />
<polygon points="752.561584,553.714111 730.333069,523.961426 732.808899,534.167236 764.466003,571.033386 "
style="fill:rgb(255,255,255); stroke:black;stroke-width:1.000000" />
<polygon points="750.457581,503.143280 767.053772,516.925476 770.647034,504.653046 758.133667,495.497192 "
style="fill:rgb(255,255,255); stroke:black;stroke-width:1.000000" />
<polygon points="735.500305,461.479950 745.210510,478.224274 754.720825,469.689789 743.416016,454.174255 "
style="fill:rgb(255,255,255); stroke:black;stroke-width:1.000000" />
<polygon points="698.055847,412.155487 721.291260,429.715118 721.015686,413.788239 690.709900,393.389954 "
style="fill:rgb(255,255,255); stroke:black;stroke-width:1.000000" />
<polygon points="755.254578,527.523865 749.238586,534.382629 770.482117,529.044617 775.590820,524.607971 "
style="fill:rgb(255,255,255); stroke:black;stroke-width:1.000000" />
<polygon points="743.416016,454.174255 738.334839,455.620026 729.674927,439.170135 733.210205,437.711884 "
style="fill:rgb(255,255,255); stroke:black;stroke-width:1.000000" />
<polygon points="758.133667,495.497192 765.631531,484.408447 754.720825,469.689789 745.210510,478.224274 "
style="fill:rgb(255,255,255); stroke:black;stroke-width:1.000000" />
<polygon points="767.053772,516.925476 763.476501,521.553345 766.922729,507.565674 770.647034,504.653046 "
style="fill:rgb(255,255,255); stroke:black;stroke-width:1.000000" />
<polygon points="765.631531,484.408447 758.133667,495.497192 770.647034,504.653046 783.223328,503.301239 "
style="fill:rgb(255,255,255); stroke:black;stroke-width:1.000000" />
<polygon points="770.647034,504.653046 766.922729,507.565674 779.736328,507.872711 783.223328,503.301239 "
style="fill:rgb(255,255,255); stroke:black;stroke-width:1.000000" />
<polygon points="742.028809,409.170532 721.015686,413.788239 741.036926,439.379883 765.247925,433.200165 "
style="fill:rgb(255,255,255); stroke:black;stroke-width:1.000000" />
<polygon points="770.482117,529.044617 749.238586,534.382629 752.561584,553.714111 778.878479,543.695190 "
style="fill:rgb(255,255,255); stroke:black;stroke-width:1.000000" />
<polygon points="738.334839,455.620026 733.646057,450.261414 721.291260,429.715118 729.674927,439.170135 "
style="fill:rgb(255,255,255); stroke:black;stroke-width:1.000000" />
<polygon points="763.476501,521.553345 779.446106,528.932556 779.736328,507.872711 766.922729,507.565674 "
style="fill:rgb(255,255,255); stroke:black;stroke-width:1.000000" />
<polygon points="778.878479,543.695190 779.446106,528.932556 763.476501,521.553345 770.482117,529.044617 "
style="fill:rgb(255,255,255); stroke:black;stroke-width:1.000000" />
<polygon points="752.561584,553.714111 764.466003,571.033386 806.167725,570.097290 778.878479,543.695190 "
style="fill:rgb(255,255,255); stroke:black;stroke-width:1.000000" />
<polygon points="741.036926,439.379883 753.955872,461.494202 791.167725,456.380249 765.247925,433.200165 "
style="fill:rgb(255,255,255); stroke:black;stroke-width:1.000000" />
<polygon points="779.446106,528.932556 762.425293,488.966064 761.991394,488.832794 779.736328,507.872711 "
style="fill:rgb(255,255,255); stroke:black;stroke-width:1.000000" />
<polygon points="733.646057,450.261414 741.036926,439.379883 721.015686,413.788239 721.291260,429.715118 "
style="fill:rgb(255,255,255); stroke:black;stroke-width:1.000000" />
<polygon points="748.292358,472.772064 750.739075,468.752716 733.646057,450.261414 738.334839,455.620026 "
style="fill:rgb(255,255,255); stroke:black;stroke-width:1.000000" />
<polygon points="761.991394,488.832794 762.425293,488.966064 750.739075,468.752716 748.292358,472.772064 "
style="fill:rgb(255,255,255); stroke:black;stroke-width:1.000000" />
<polygon points="733.646057,450.261414 750.739075,468.752716 753.955872,461.494202 741.036926,439.379883 "
style="fill:rgb(255,255,255); stroke:black;stroke-width:1.000000" />
<polygon points="1013.069824,631.516479 1043.314697,569.171448 1077.053833,537.044800 1040.600586,618.623962 "
style="fill:rgb(255,255,255); stroke:black;stroke-width:1.000000" />
<polygon points="772.670654,401.940887 742.203674,403.021515 783.802063,368.999756 813.221497,367.195953 "
style="fill:rgb(255,255,255); stroke:black;stroke-width:1.000000" />
<polygon points="742.203674,403.021515 753.955872,461.494202 726.838501,476.160492 712.148376,437.008301 "
style="fill:rgb(255,255,255); stroke:black;stroke-width:1.000000" />
<polygon points="966.162109,322.431305 1065.184448,352.596497 1084.646484,430.741852 990.610413,379.630402 "
style="fill:rgb(255,255,255); stroke:black;stroke-width:1.000000" />
<polygon points="827.425781,861.984070 810.791260,854.742859 802.452759,837.833740 833.083191,855.845703 "
style="fill:rgb(255,255,255); stroke:black;stroke-width:1.000000" />
<polygon points="810.791260,854.742859 798.152893,839.174011 791.780273,826.148621 802.452759,837.833740 "
style="fill:rgb(255,255,255); stroke:black;stroke-width:1.000000" />
<polygon points="1269.168701,571.773621 1198.784668,609.103027 1206.067017,586.586914 1280.403687,561.513245 "
style="fill:rgb(255,255,255); stroke:black;stroke-width:1.000000" />
<polygon points="783.802063,368.999756 809.230042,337.852814 845.460938,331.318939 813.221497,367.195953 "
style="fill:rgb(255,255,255); stroke:black;stroke-width:1.000000" />
<polygon points="865.580566,876.242065 827.425781,861.984070 833.083191,855.845703 872.625366,873.329041 "
style="fill:rgb(255,255,255); stroke:black;stroke-width:1.000000" />
<polygon points="1202.556641,581.844543 1246.138306,557.487061 1253.388184,555.813660 1206.878906,575.897888 "
style="fill:rgb(255,255,255); stroke:black;stroke-width:1.000000" />
<polygon points="748.027832,573.422668 733.190674,608.248413 694.398071,558.591431 717.836426,505.549805 "
style="fill:rgb(255,255,255); stroke:black;stroke-width:1.000000" />
<polygon points="798.152893,839.174011 796.793030,819.708252 786.990723,793.652222 791.780273,826.148621 "
style="fill:rgb(255,255,255); stroke:black;stroke-width:1.000000" />
<polygon points="712.148376,437.008301 726.838501,476.160492 717.836426,505.549805 703.687134,498.124603 "
style="fill:rgb(255,255,255); stroke:black;stroke-width:1.000000" />
<polygon points="958.403015,698.715393 1013.069824,631.516479 1040.600586,618.623962 1007.721741,657.687927 "
style="fill:rgb(255,255,255); stroke:black;stroke-width:1.000000" />
<polygon points="1084.646484,430.741852 1065.184448,352.596497 1115.648071,399.929352 1113.824707,470.330933 "
style="fill:rgb(255,255,255); stroke:black;stroke-width:1.000000" />
<polygon points="1253.388184,555.813660 1211.250122,537.801208 1195.048950,551.932983 1206.878906,575.897888 "
style="fill:rgb(255,255,255); stroke:black;stroke-width:1.000000" />
<polygon points="917.703003,876.966980 905.912109,881.746826 865.580566,876.242065 872.625366,873.329041 "
style="fill:rgb(255,255,255); stroke:black;stroke-width:1.000000" />
<polygon points="1269.168701,571.773621 1250.505981,566.359985 1197.010742,597.639221 1198.784668,609.103027 "
style="fill:rgb(255,255,255); stroke:black;stroke-width:1.000000" />
<polygon points="1250.505981,566.359985 1246.138306,557.487061 1202.556641,581.844543 1197.010742,597.639221 "
style="fill:rgb(255,255,255); stroke:black;stroke-width:1.000000" />
<polygon points="1295.572144,512.958618 1269.168701,571.773621 1280.403687,561.513245 1301.179565,510.832794 "
style="fill:rgb(255,255,255); stroke:black;stroke-width:1.000000" />
<polygon points="827.425781,861.984070 843.770264,869.276917 828.125427,859.067017 810.791260,854.742859 "
style="fill:rgb(255,255,255); stroke:black;stroke-width:1.000000" />
<polygon points="742.203674,403.021515 712.148376,437.008301 753.941040,400.658722 783.802063,368.999756 "
style="fill:rgb(255,255,255); stroke:black;stroke-width:1.000000" />
<polygon points="1206.878906,575.897888 1195.048950,551.932983 1176.325439,567.335693 1157.491455,590.983398 "
style="fill:rgb(255,255,255); stroke:black;stroke-width:1.000000" />
<polygon points="1154.509155,599.263184 1202.556641,581.844543 1206.878906,575.897888 1157.491455,590.983398 "
style="fill:rgb(255,255,255); stroke:black;stroke-width:1.000000" />
<polygon points="1148.453857,581.460205 1140.069336,587.256714 1142.604126,581.846252 1152.901611,576.375122 "
style="fill:rgb(255,255,255); stroke:black;stroke-width:1.000000" />
<polygon points="1142.604126,581.846252 1157.491455,590.983398 1176.325439,567.335693 1152.901611,576.375122 "
style="fill:rgb(255,255,255); stroke:black;stroke-width:1.000000" />
<polygon points="1270.082153,520.666138 1226.450928,533.496582 1211.250122,537.801208 1253.388184,555.813660 "
style="fill:rgb(255,255,255); stroke:black;stroke-width:1.000000" />
<polygon points="865.580566,876.242065 859.825378,873.320923 843.770264,869.276917 827.425781,861.984070 "
style="fill:rgb(255,255,255); stroke:black;stroke-width:1.000000" />
<polygon points="965.429199,868.501465 956.629150,875.847839 967.558105,848.507629 958.937500,802.482788 "
style="fill:rgb(255,255,255); stroke:black;stroke-width:1.000000" />
<polygon points="1147.951050,561.354065 1152.901611,576.375122 1176.325439,567.335693 1164.773315,555.727966 "
style="fill:rgb(255,255,255); stroke:black;stroke-width:1.000000" />
<polygon points="1270.767212,519.030518 1262.557617,522.978210 1246.138306,557.487061 1250.505981,566.359985 "
style="fill:rgb(255,255,255); stroke:black;stroke-width:1.000000" />
<polygon points="1140.069336,587.256714 1154.509155,599.263184 1157.491455,590.983398 1142.604126,581.846252 "
style="fill:rgb(255,255,255); stroke:black;stroke-width:1.000000" />
<polygon points="956.629150,875.847839 923.096680,882.920959 905.912109,881.746826 917.703003,876.966980 "
style="fill:rgb(255,255,255); stroke:black;stroke-width:1.000000" />
<polygon points="1143.561157,564.554138 1148.453857,581.460205 1152.901611,576.375122 1147.951050,561.354065 "
style="fill:rgb(255,255,255); stroke:black;stroke-width:1.000000" />
<polygon points="1164.773315,555.727966 1176.325439,567.335693 1195.048950,551.932983 1185.149292,541.372437 "
style="fill:rgb(255,255,255); stroke:black;stroke-width:1.000000" />
<polygon points="1147.951050,561.354065 1164.773315,555.727966 1153.407104,540.443054 1132.406006,555.442444 "
style="fill:rgb(255,255,255); stroke:black;stroke-width:1.000000" />
<polygon points="810.791260,854.742859 828.125427,859.067017 825.359070,839.132507 798.152893,839.174011 "
style="fill:rgb(255,255,255); stroke:black;stroke-width:1.000000" />
<polygon points="1127.785034,560.367737 1143.561157,564.554138 1147.951050,561.354065 1132.406006,555.442444 "
style="fill:rgb(255,255,255); stroke:black;stroke-width:1.000000" />
<polygon points="1295.572144,512.958618 1270.767212,519.030518 1250.505981,566.359985 1269.168701,571.773621 "
style="fill:rgb(255,255,255); stroke:black;stroke-width:1.000000" />
<polygon points="1198.784668,609.103027 1197.010742,597.639221 1135.443848,617.152222 1120.043335,631.565430 "
style="fill:rgb(255,255,255); stroke:black;stroke-width:1.000000" />
<polygon points="1253.895508,495.018250 1221.717651,517.919067 1226.450928,533.496582 1270.082153,520.666138 "
style="fill:rgb(255,255,255); stroke:black;stroke-width:1.000000" />
<polygon points="1197.010742,597.639221 1202.556641,581.844543 1154.509155,599.263184 1135.443848,617.152222 "
style="fill:rgb(255,255,255); stroke:black;stroke-width:1.000000" />
<polygon points="874.096497,876.940979 859.825378,873.320923 865.580566,876.242065 905.912109,881.746826 "
style="fill:rgb(255,255,255); stroke:black;stroke-width:1.000000" />
<polygon points="854.016052,853.123718 848.184326,865.679199 859.623596,870.128845 865.370178,857.503662 "
style="fill:rgb(255,255,255); stroke:black;stroke-width:1.000000" />
<polygon points="1185.149292,541.372437 1195.048950,551.932983 1211.250122,537.801208 1201.704956,526.258057 "
style="fill:rgb(255,255,255); stroke:black;stroke-width:1.000000" />
<polygon points="841.390686,843.681946 833.523804,857.259521 848.184326,865.679199 854.016052,853.123718 "
style="fill:rgb(255,255,255); stroke:black;stroke-width:1.000000" />
<polygon points="1148.453857,581.460205 1112.118530,581.180725 1110.422485,597.219849 1140.069336,587.256714 "
style="fill:rgb(255,255,255); stroke:black;stroke-width:1.000000" />
<polygon points="848.184326,865.679199 843.770264,869.276917 859.825378,873.320923 859.623596,870.128845 "
style="fill:rgb(255,255,255); stroke:black;stroke-width:1.000000" />
<polygon points="841.390686,843.681946 854.016052,853.123718 837.810364,834.684937 "
style="fill:rgb(255,255,255); stroke:black;stroke-width:1.000000" />
<polygon points="1148.897461,545.310059 1127.785034,560.367737 1132.406006,555.442444 1153.407104,540.443054 "
style="fill:rgb(255,255,255); stroke:black;stroke-width:1.000000" />
<polygon points="1127.785034,560.367737 1112.118530,581.180725 1148.453857,581.460205 1143.561157,564.554138 "
style="fill:rgb(255,255,255); stroke:black;stroke-width:1.000000" />
<polygon points="1201.704956,526.258057 1211.250122,537.801208 1226.450928,533.496582 1221.717651,517.919067 "
style="fill:rgb(255,255,255); stroke:black;stroke-width:1.000000" />
<polygon points="1166.544678,527.590088 1153.407104,540.443054 1164.773315,555.727966 1185.149292,541.372437 "
style="fill:rgb(255,255,255); stroke:black;stroke-width:1.000000" />
<polygon points="859.623596,870.128845 870.935120,871.397766 876.606140,858.710327 865.370178,857.503662 "
style="fill:rgb(255,255,255); stroke:black;stroke-width:1.000000" />
<polygon points="1211.561035,500.820831 1221.717651,517.919067 1253.895508,495.018250 "
style="fill:rgb(255,255,255); stroke:black;stroke-width:1.000000" />
<polygon points="833.523804,857.259521 828.125427,859.067017 843.770264,869.276917 848.184326,865.679199 "
style="fill:rgb(255,255,255); stroke:black;stroke-width:1.000000" />
<polygon points="1077.646118,615.673828 1120.043335,631.565430 1135.443848,617.152222 1110.422485,597.219849 "
style="fill:rgb(255,255,255); stroke:black;stroke-width:1.000000" />
<polygon points="854.016052,853.123718 865.370178,857.503662 861.846558,845.409363 837.810364,834.684937 "
style="fill:rgb(255,255,255); stroke:black;stroke-width:1.000000" />
<polygon points="1135.443848,617.152222 1154.509155,599.263184 1140.069336,587.256714 1110.422485,597.219849 "
style="fill:rgb(255,255,255); stroke:black;stroke-width:1.000000" />
<polygon points="859.825378,873.320923 874.096497,876.940979 870.935120,871.397766 859.623596,870.128845 "
style="fill:rgb(255,255,255); stroke:black;stroke-width:1.000000" />
<polygon points="1268.951050,462.891663 1295.572144,512.958618 1301.179565,510.832794 1276.043213,460.837036 "
style="fill:rgb(255,255,255); stroke:black;stroke-width:1.000000" />
<polygon points="965.429199,868.501465 927.225098,871.089233 923.096680,882.920959 956.629150,875.847839 "
style="fill:rgb(255,255,255); stroke:black;stroke-width:1.000000" />
<polygon points="1248.483276,495.535950 1205.404297,502.207489 1211.561035,500.820831 1253.895508,495.018250 "
style="fill:rgb(255,255,255); stroke:black;stroke-width:1.000000" />
<polygon points="1166.544678,527.590088 1185.149292,541.372437 1201.704956,526.258057 1185.011841,514.425598 "
style="fill:rgb(255,255,255); stroke:black;stroke-width:1.000000" />
<polygon points="1211.561035,500.820831 1185.011841,514.425598 1201.704956,526.258057 1221.717651,517.919067 "
style="fill:rgb(255,255,255); stroke:black;stroke-width:1.000000" />
<polygon points="845.460938,331.318939 809.230042,337.852814 922.160889,333.803406 966.162109,322.431305 "
style="fill:rgb(255,255,255); stroke:black;stroke-width:1.000000" />
<polygon points="885.390198,873.434631 874.096497,876.940979 905.912109,881.746826 923.096680,882.920959 "
style="fill:rgb(255,255,255); stroke:black;stroke-width:1.000000" />
<polygon points="861.846558,845.409363 865.370178,857.503662 876.606140,858.710327 883.663269,845.832642 "
style="fill:rgb(255,255,255); stroke:black;stroke-width:1.000000" />
<polygon points="1253.087646,481.869415 1248.483276,495.535950 1262.557617,522.978210 1270.767212,519.030518 "
style="fill:rgb(255,255,255); stroke:black;stroke-width:1.000000" />
<polygon points="837.810364,834.684937 830.474304,843.668457 833.523804,857.259521 841.390686,843.681946 "
style="fill:rgb(255,255,255); stroke:black;stroke-width:1.000000" />
<polygon points="717.836426,505.549805 694.398071,558.591431 668.966064,508.993134 703.687134,498.124603 "
style="fill:rgb(255,255,255); stroke:black;stroke-width:1.000000" />
<polygon points="1098.917114,633.698975 1007.721741,657.687927 1040.600586,618.623962 1077.646118,615.673828 "
style="fill:rgb(255,255,255); stroke:black;stroke-width:1.000000" />
<polygon points="870.935120,871.397766 879.404236,868.728699 886.798096,854.828308 876.606140,858.710327 "
style="fill:rgb(255,255,255); stroke:black;stroke-width:1.000000" />
<polygon points="1163.875610,531.694458 1148.897461,545.310059 1153.407104,540.443054 1166.544678,527.590088 "
style="fill:rgb(255,255,255); stroke:black;stroke-width:1.000000" />
<polygon points="796.793030,819.708252 798.152893,839.174011 825.359070,839.132507 822.924255,832.043091 "
style="fill:rgb(255,255,255); stroke:black;stroke-width:1.000000" />
<polygon points="1148.897461,545.310059 1135.781006,543.473022 1112.118530,581.180725 1127.785034,560.367737 "
style="fill:rgb(255,255,255); stroke:black;stroke-width:1.000000" />
<polygon points="883.663269,845.832642 876.606140,858.710327 886.798096,854.828308 "
style="fill:rgb(255,255,255); stroke:black;stroke-width:1.000000" />
<polygon points="830.474304,843.668457 825.359070,839.132507 828.125427,859.067017 833.523804,857.259521 "
style="fill:rgb(255,255,255); stroke:black;stroke-width:1.000000" />
<polygon points="1106.435791,604.548279 1110.422485,597.219849 1112.118530,581.180725 "
style="fill:rgb(255,255,255); stroke:black;stroke-width:1.000000" />
<polygon points="796.793030,819.708252 798.334900,770.140930 791.050964,741.107544 786.990723,793.652222 "
style="fill:rgb(255,255,255); stroke:black;stroke-width:1.000000" />
<polygon points="874.096497,876.940979 885.390198,873.434631 879.404236,868.728699 870.935120,871.397766 "
style="fill:rgb(255,255,255); stroke:black;stroke-width:1.000000" />
<polygon points="1206.229614,474.550476 1268.951050,462.891663 1276.043213,460.837036 1212.841675,467.110657 "
style="fill:rgb(255,255,255); stroke:black;stroke-width:1.000000" />
<polygon points="1205.404297,502.207489 1180.615356,516.247498 1185.011841,514.425598 1211.561035,500.820831 "
style="fill:rgb(255,255,255); stroke:black;stroke-width:1.000000" />
<polygon points="957.402710,833.643250 965.429199,868.501465 958.937500,802.482788 947.867249,757.002502 "
style="fill:rgb(255,255,255); stroke:black;stroke-width:1.000000" />
<polygon points="1268.951050,462.891663 1253.087646,481.869415 1270.767212,519.030518 1295.572144,512.958618 "
style="fill:rgb(255,255,255); stroke:black;stroke-width:1.000000" />
<polygon points="1180.615356,516.247498 1163.875610,531.694458 1166.544678,527.590088 1185.011841,514.425598 "
style="fill:rgb(255,255,255); stroke:black;stroke-width:1.000000" />
<polygon points="1098.917114,633.698975 1077.646118,615.673828 1110.422485,597.219849 1106.435791,604.548279 "
style="fill:rgb(255,255,255); stroke:black;stroke-width:1.000000" />
<polygon points="1143.255249,503.972748 1143.384888,515.309143 1165.149658,495.413605 1164.209961,484.801910 "
style="fill:rgb(255,255,255); stroke:black;stroke-width:1.000000" />
<polygon points="712.148376,437.008301 703.687134,498.124603 732.013611,484.211609 753.941040,400.658722 "
style="fill:rgb(255,255,255); stroke:black;stroke-width:1.000000" />
<polygon points="1201.676758,492.165558 1205.404297,502.207489 1248.483276,495.535950 1253.087646,481.869415 "
style="fill:rgb(255,255,255); stroke:black;stroke-width:1.000000" />
<polygon points="1165.149658,495.413605 1206.229614,474.550476 1212.841675,467.110657 1164.209961,484.801910 "
style="fill:rgb(255,255,255); stroke:black;stroke-width:1.000000" />
<polygon points="1149.399536,524.757568 1135.781006,543.473022 1148.897461,545.310059 1163.875610,531.694458 "
style="fill:rgb(255,255,255); stroke:black;stroke-width:1.000000" />
<polygon points="753.941040,400.658722 772.245667,382.994415 809.230042,337.852814 783.802063,368.999756 "
style="fill:rgb(255,255,255); stroke:black;stroke-width:1.000000" />
<polygon points="854.803955,854.548035 852.933716,855.638306 825.359070,839.132507 830.474304,843.668457 "
style="fill:rgb(255,255,255); stroke:black;stroke-width:1.000000" />
<polygon points="879.625977,852.443970 885.390198,873.434631 923.096680,882.920959 927.225098,871.089233 "
style="fill:rgb(255,255,255); stroke:black;stroke-width:1.000000" />
<polygon points="876.822510,855.081665 854.803955,854.548035 861.846558,845.409363 883.663269,845.832642 "
style="fill:rgb(255,255,255); stroke:black;stroke-width:1.000000" />
<polygon points="957.402710,833.643250 920.122681,849.510742 927.225098,871.089233 965.429199,868.501465 "
style="fill:rgb(255,255,255); stroke:black;stroke-width:1.000000" />
<polygon points="941.827087,726.021423 942.505249,715.319824 958.403015,698.715393 935.239929,712.929993 "
style="fill:rgb(255,255,255); stroke:black;stroke-width:1.000000" />
<polygon points="822.924255,832.043091 825.359070,839.132507 852.933716,855.638306 851.730042,837.411011 "
style="fill:rgb(255,255,255); stroke:black;stroke-width:1.000000" />
<polygon points="935.239929,712.929993 958.403015,698.715393 1007.721741,657.687927 "
style="fill:rgb(255,255,255); stroke:black;stroke-width:1.000000" />
<polygon points="885.390198,873.434631 879.625977,852.443970 876.822510,855.081665 879.404236,868.728699 "
style="fill:rgb(255,255,255); stroke:black;stroke-width:1.000000" />
<polygon points="1201.676758,492.165558 1171.867310,509.714020 1180.615356,516.247498 1205.404297,502.207489 "
style="fill:rgb(255,255,255); stroke:black;stroke-width:1.000000" />
<polygon points="1206.229614,474.550476 1201.676758,492.165558 1253.087646,481.869415 1268.951050,462.891663 "
style="fill:rgb(255,255,255); stroke:black;stroke-width:1.000000" />
<polygon points="879.625977,852.443970 852.933716,855.638306 854.803955,854.548035 876.822510,855.081665 "
style="fill:rgb(255,255,255); stroke:black;stroke-width:1.000000" />
<polygon points="1171.867310,509.714020 1149.399536,524.757568 1163.875610,531.694458 1180.615356,516.247498 "
style="fill:rgb(255,255,255); stroke:black;stroke-width:1.000000" />
<polygon points="1143.255249,503.972748 1149.260864,447.060303 1136.543457,450.824341 1143.384888,515.309143 "
style="fill:rgb(255,255,255); stroke:black;stroke-width:1.000000" />
<polygon points="1144.815430,536.228088 1106.435791,604.548279 1112.118530,581.180725 1135.781006,543.473022 "
style="fill:rgb(255,255,255); stroke:black;stroke-width:1.000000" />
<polygon points="852.933716,855.638306 879.625977,852.443970 881.247925,846.239258 851.730042,837.411011 "
style="fill:rgb(255,255,255); stroke:black;stroke-width:1.000000" />
<polygon points="822.924255,832.043091 826.632629,784.086426 798.334900,770.140930 796.793030,819.708252 "
style="fill:rgb(255,255,255); stroke:black;stroke-width:1.000000" />
<polygon points="671.183289,578.192322 672.343018,568.239197 709.920410,631.813538 698.633118,621.818237 "
style="fill:rgb(255,255,255); stroke:black;stroke-width:1.000000" />
<polygon points="879.625977,852.443970 927.225098,871.089233 920.122681,849.510742 881.247925,846.239258 "
style="fill:rgb(255,255,255); stroke:black;stroke-width:1.000000" />
<polygon points="823.762146,684.765442 821.035950,677.131104 766.832581,643.964050 "
style="fill:rgb(255,255,255); stroke:black;stroke-width:1.000000" />
<polygon points="1143.384888,515.309143 1149.399536,524.757568 1171.867310,509.714020 1165.149658,495.413605 "
style="fill:rgb(255,255,255); stroke:black;stroke-width:1.000000" />
<polygon points="1206.229614,474.550476 1165.149658,495.413605 1171.867310,509.714020 1201.676758,492.165558 "
style="fill:rgb(255,255,255); stroke:black;stroke-width:1.000000" />
<polygon points="1144.815430,536.228088 1135.781006,543.473022 1149.399536,524.757568 1143.384888,515.309143 "
style="fill:rgb(255,255,255); stroke:black;stroke-width:1.000000" />
<polygon points="922.160889,333.803406 1041.921021,361.069885 1065.184448,352.596497 966.162109,322.431305 "
style="fill:rgb(255,255,255); stroke:black;stroke-width:1.000000" />
<polygon points="946.375549,775.113586 957.402710,833.643250 947.867249,757.002502 941.827087,726.021423 "
style="fill:rgb(255,255,255); stroke:black;stroke-width:1.000000" />
<polygon points="803.493347,741.963684 803.657043,714.057068 791.050964,741.107544 798.334900,770.140930 "
style="fill:rgb(255,255,255); stroke:black;stroke-width:1.000000" />
<polygon points="703.687134,498.124603 668.966064,508.993134 690.827820,505.023773 732.013611,484.211609 "
style="fill:rgb(255,255,255); stroke:black;stroke-width:1.000000" />
<polygon points="823.762146,684.765442 808.185181,701.193787 813.759949,689.639648 821.035950,677.131104 "
style="fill:rgb(255,255,255); stroke:black;stroke-width:1.000000" />
<polygon points="1100.612427,403.755859 1136.543457,450.824341 1149.260864,447.060303 1115.648071,399.929352 "
style="fill:rgb(255,255,255); stroke:black;stroke-width:1.000000" />
<polygon points="698.633118,621.818237 709.920410,631.813538 759.827454,663.104614 748.187195,662.802246 "
style="fill:rgb(255,255,255); stroke:black;stroke-width:1.000000" />
<polygon points="846.487061,788.636658 826.632629,784.086426 822.924255,832.043091 851.730042,837.411011 "
style="fill:rgb(255,255,255); stroke:black;stroke-width:1.000000" />
<polygon points="652.949036,541.391785 632.606079,515.552307 672.343018,568.239197 671.183289,578.192322 "
style="fill:rgb(255,255,255); stroke:black;stroke-width:1.000000" />
<polygon points="1065.184448,352.596497 1041.921021,361.069885 1100.612427,403.755859 1115.648071,399.929352 "
style="fill:rgb(255,255,255); stroke:black;stroke-width:1.000000" />
<polygon points="732.013611,484.211609 751.644958,488.256744 772.245667,382.994415 753.941040,400.658722 "
style="fill:rgb(255,255,255); stroke:black;stroke-width:1.000000" />
<polygon points="946.375549,775.113586 905.500427,794.466370 920.122681,849.510742 957.402710,833.643250 "
style="fill:rgb(255,255,255); stroke:black;stroke-width:1.000000" />
<polygon points="806.060303,726.621826 808.185181,701.193787 803.657043,714.057068 803.493347,741.963684 "
style="fill:rgb(255,255,255); stroke:black;stroke-width:1.000000" />
<polygon points="1135.268921,569.389893 1098.917114,633.698975 1106.435791,604.548279 1144.815430,536.228088 "
style="fill:rgb(255,255,255); stroke:black;stroke-width:1.000000" />
<polygon points="881.247925,846.239258 866.572449,793.239807 846.487061,788.636658 851.730042,837.411011 "
style="fill:rgb(255,255,255); stroke:black;stroke-width:1.000000" />
<polygon points="946.375549,775.113586 941.827087,726.021423 935.239929,712.929993 933.053650,741.255981 "
style="fill:rgb(255,255,255); stroke:black;stroke-width:1.000000" />
<polygon points="905.500427,794.466370 866.572449,793.239807 881.247925,846.239258 920.122681,849.510742 "
style="fill:rgb(255,255,255); stroke:black;stroke-width:1.000000" />
<polygon points="668.966064,508.993134 632.606079,515.552307 661.697388,510.801453 690.827820,505.023773 "
style="fill:rgb(255,255,255); stroke:black;stroke-width:1.000000" />
<polygon points="671.183289,578.192322 698.633118,621.818237 722.067749,632.041260 689.153931,592.348022 "
style="fill:rgb(255,255,255); stroke:black;stroke-width:1.000000" />
<polygon points="988.294861,686.423767 929.047119,705.867981 935.239929,712.929993 1007.721741,657.687927 "
style="fill:rgb(255,255,255); stroke:black;stroke-width:1.000000" />
<polygon points="798.334900,770.140930 826.632629,784.086426 822.887329,746.746277 803.493347,741.963684 "
style="fill:rgb(255,255,255); stroke:black;stroke-width:1.000000" />
<polygon points="748.187195,662.802246 759.827454,663.104614 813.759949,689.639648 800.089294,711.365723 "
style="fill:rgb(255,255,255); stroke:black;stroke-width:1.000000" />
<polygon points="933.053650,741.255981 935.239929,712.929993 929.047119,705.867981 926.550842,725.595398 "
style="fill:rgb(255,255,255); stroke:black;stroke-width:1.000000" />
<polygon points="652.949036,541.391785 671.183289,578.192322 689.153931,592.348022 681.785217,564.448792 "
style="fill:rgb(255,255,255); stroke:black;stroke-width:1.000000" />
<polygon points="722.271973,618.813110 716.975891,626.213440 699.303223,584.550232 700.203552,568.075928 "
style="fill:rgb(255,255,255); stroke:black;stroke-width:1.000000" />
<polygon points="732.013611,484.211609 690.827820,505.023773 727.055847,493.038727 751.644958,488.256744 "
style="fill:rgb(255,255,255); stroke:black;stroke-width:1.000000" />
<polygon points="698.633118,621.818237 748.187195,662.802246 748.087585,653.411133 722.067749,632.041260 "
style="fill:rgb(255,255,255); stroke:black;stroke-width:1.000000" />
<polygon points="1038.109009,664.038147 988.294861,686.423767 1007.721741,657.687927 1098.917114,633.698975 "
style="fill:rgb(255,255,255); stroke:black;stroke-width:1.000000" />
<polygon points="806.060303,726.621826 800.089294,711.365723 813.759949,689.639648 808.185181,701.193787 "
style="fill:rgb(255,255,255); stroke:black;stroke-width:1.000000" />
<polygon points="766.652710,651.784241 751.407227,653.006165 716.975891,626.213440 722.271973,618.813110 "
style="fill:rgb(255,255,255); stroke:black;stroke-width:1.000000" />
<polygon points="846.487061,788.636658 845.637695,760.633484 822.887329,746.746277 826.632629,784.086426 "
style="fill:rgb(255,255,255); stroke:black;stroke-width:1.000000" />
<polygon points="809.230042,337.852814 772.245667,382.994415 882.759399,388.401794 922.160889,333.803406 "
style="fill:rgb(255,255,255); stroke:black;stroke-width:1.000000" />
<polygon points="1144.815430,536.228088 1143.384888,515.309143 1136.543457,450.824341 1120.335083,491.115509 "
style="fill:rgb(255,255,255); stroke:black;stroke-width:1.000000" />
<polygon points="803.493347,741.963684 822.887329,746.746277 810.737854,731.262390 806.060303,726.621826 "
style="fill:rgb(255,255,255); stroke:black;stroke-width:1.000000" />
<polygon points="946.375549,775.113586 933.053650,741.255981 896.019226,762.170227 905.500427,794.466370 "
style="fill:rgb(255,255,255); stroke:black;stroke-width:1.000000" />
<polygon points="695.721130,596.568726 689.153931,592.348022 722.067749,632.041260 718.014648,629.710938 "
style="fill:rgb(255,255,255); stroke:black;stroke-width:1.000000" />
<polygon points="917.118286,710.563782 926.550842,725.595398 929.047119,705.867981 923.496887,697.455811 "
style="fill:rgb(255,255,255); stroke:black;stroke-width:1.000000" />
<polygon points="653.710449,542.153564 661.697388,510.801453 632.606079,515.552307 652.949036,541.391785 "
style="fill:rgb(255,255,255); stroke:black;stroke-width:1.000000" />
<polygon points="689.599609,573.714111 681.785217,564.448792 689.153931,592.348022 695.721130,596.568726 "
style="fill:rgb(255,255,255); stroke:black;stroke-width:1.000000" />
<polygon points="867.472473,756.490234 845.637695,760.633484 846.487061,788.636658 866.572449,793.239807 "
style="fill:rgb(255,255,255); stroke:black;stroke-width:1.000000" />
<polygon points="988.294861,686.423767 923.496887,697.455811 929.047119,705.867981 "
style="fill:rgb(255,255,255); stroke:black;stroke-width:1.000000" />
<polygon points="704.151855,593.057251 695.721130,596.568726 718.014648,629.710938 723.760864,624.443909 "
style="fill:rgb(255,255,255); stroke:black;stroke-width:1.000000" />
<polygon points="867.472473,756.490234 866.572449,793.239807 905.500427,794.466370 896.019226,762.170227 "
style="fill:rgb(255,255,255); stroke:black;stroke-width:1.000000" />
<polygon points="718.014648,629.710938 722.067749,632.041260 748.087585,653.411133 741.318787,647.556152 "
style="fill:rgb(255,255,255); stroke:black;stroke-width:1.000000" />
<polygon points="700.030701,575.055481 689.599609,573.714111 695.721130,596.568726 704.151855,593.057251 "
style="fill:rgb(255,255,255); stroke:black;stroke-width:1.000000" />
<polygon points="653.710449,542.153564 652.949036,541.391785 681.785217,564.448792 686.499939,548.156433 "
style="fill:rgb(255,255,255); stroke:black;stroke-width:1.000000" />
<polygon points="700.203552,568.075928 699.303223,584.550232 708.069763,551.321777 711.245544,523.942200 "
style="fill:rgb(255,255,255); stroke:black;stroke-width:1.000000" />
<polygon points="933.053650,741.255981 926.550842,725.595398 891.151184,744.808289 896.019226,762.170227 "
style="fill:rgb(255,255,255); stroke:black;stroke-width:1.000000" />
<polygon points="692.247314,559.749207 686.499939,548.156433 681.785217,564.448792 689.599609,573.714111 "
style="fill:rgb(255,255,255); stroke:black;stroke-width:1.000000" />
<polygon points="1090.952393,626.037476 1038.109009,664.038147 1098.917114,633.698975 1135.268921,569.389893 "
style="fill:rgb(255,255,255); stroke:black;stroke-width:1.000000" />
<polygon points="723.760864,624.443909 718.014648,629.710938 741.318787,647.556152 742.925842,639.549072 "
style="fill:rgb(255,255,255); stroke:black;stroke-width:1.000000" />
<polygon points="806.060303,726.621826 810.737854,731.262390 816.299988,712.832764 800.089294,711.365723 "
style="fill:rgb(255,255,255); stroke:black;stroke-width:1.000000" />
<polygon points="845.637695,760.633484 867.472473,756.490234 864.721436,759.782593 840.780945,765.295715 "
style="fill:rgb(255,255,255); stroke:black;stroke-width:1.000000" />
<polygon points="816.299011,748.241760 815.681458,749.010071 840.780945,765.295715 837.388489,761.923584 "
style="fill:rgb(255,255,255); stroke:black;stroke-width:1.000000" />
<polygon points="1082.551514,440.123718 1120.335083,491.115509 1136.543457,450.824341 1100.612427,403.755859 "
style="fill:rgb(255,255,255); stroke:black;stroke-width:1.000000" />
<polygon points="810.297058,646.820984 784.861755,648.359558 751.407227,653.006165 766.652710,651.784241 "
style="fill:rgb(255,255,255); stroke:black;stroke-width:1.000000" />
<polygon points="716.975891,626.213440 719.102417,622.556885 709.936523,600.198792 699.303223,584.550232 "
style="fill:rgb(255,255,255); stroke:black;stroke-width:1.000000" />
<polygon points="816.299011,748.241760 804.671265,744.774536 802.678589,738.347778 815.681458,749.010071 "
style="fill:rgb(255,255,255); stroke:black;stroke-width:1.000000" />
<polygon points="703.024902,563.134766 692.247314,559.749207 689.599609,573.714111 700.030701,575.055481 "
style="fill:rgb(255,255,255); stroke:black;stroke-width:1.000000" />
<polygon points="690.827820,505.023773 661.697388,510.801453 703.418152,495.361115 727.055847,493.038727 "
style="fill:rgb(255,255,255); stroke:black;stroke-width:1.000000" />
<polygon points="748.187195,662.802246 800.089294,711.365723 784.861755,648.359558 748.087585,653.411133 "
style="fill:rgb(255,255,255); stroke:black;stroke-width:1.000000" />
<polygon points="751.407227,653.006165 739.758240,636.824463 719.102417,622.556885 716.975891,626.213440 "
style="fill:rgb(255,255,255); stroke:black;stroke-width:1.000000" />
<polygon points="876.099731,745.301819 867.472473,756.490234 896.019226,762.170227 891.151184,744.808289 "
style="fill:rgb(255,255,255); stroke:black;stroke-width:1.000000" />
<polygon points="917.118286,710.563782 867.030579,725.398560 891.151184,744.808289 926.550842,725.595398 "
style="fill:rgb(255,255,255); stroke:black;stroke-width:1.000000" />
<polygon points="840.780945,765.295715 864.721436,759.782593 857.428711,757.265808 837.388489,761.923584 "
style="fill:rgb(255,255,255); stroke:black;stroke-width:1.000000" />
<polygon points="804.671265,744.774536 809.401245,726.320740 808.931213,714.817261 802.678589,738.347778 "
style="fill:rgb(255,255,255); stroke:black;stroke-width:1.000000" />
<polygon points="816.299011,748.241760 837.388489,761.923584 833.003357,745.469543 804.671265,744.774536 "
style="fill:rgb(255,255,255); stroke:black;stroke-width:1.000000" />
<polygon points="1135.268921,569.389893 1144.815430,536.228088 1120.335083,491.115509 1082.990112,555.530823 "
style="fill:rgb(255,255,255); stroke:black;stroke-width:1.000000" />
<polygon points="808.931213,714.817261 827.243103,716.806213 842.702515,716.503845 816.299988,712.832764 "
style="fill:rgb(255,255,255); stroke:black;stroke-width:1.000000" />
<polygon points="876.099731,745.301819 872.682434,753.565186 864.721436,759.782593 867.472473,756.490234 "
style="fill:rgb(255,255,255); stroke:black;stroke-width:1.000000" />
<polygon points="741.318787,647.556152 748.087585,653.411133 784.861755,648.359558 772.945312,648.985291 "
style="fill:rgb(255,255,255); stroke:black;stroke-width:1.000000" />
<polygon points="1041.921021,361.069885 1015.430298,410.771210 1082.551514,440.123718 1100.612427,403.755859 "
style="fill:rgb(255,255,255); stroke:black;stroke-width:1.000000" />
<polygon points="699.303223,584.550232 709.936523,600.198792 714.148865,580.506653 708.069763,551.321777 "
style="fill:rgb(255,255,255); stroke:black;stroke-width:1.000000" />
<polygon points="827.243103,716.806213 836.673950,736.565063 842.613708,730.816406 842.702515,716.503845 "
style="fill:rgb(255,255,255); stroke:black;stroke-width:1.000000" />
<polygon points="809.401245,726.320740 804.671265,744.774536 833.003357,745.469543 821.600098,727.070312 "
style="fill:rgb(255,255,255); stroke:black;stroke-width:1.000000" />
<polygon points="742.925842,639.549072 741.318787,647.556152 772.945312,648.985291 771.753296,640.833679 "
style="fill:rgb(255,255,255); stroke:black;stroke-width:1.000000" />
<polygon points="842.613708,730.816406 836.673950,736.565063 847.996216,721.155151 842.702515,716.503845 "
style="fill:rgb(255,255,255); stroke:black;stroke-width:1.000000" />
<polygon points="809.401245,726.320740 821.600098,727.070312 827.243103,716.806213 808.931213,714.817261 "
style="fill:rgb(255,255,255); stroke:black;stroke-width:1.000000" />
<polygon points="833.003357,745.469543 837.388489,761.923584 857.428711,757.265808 862.628723,757.475098 "
style="fill:rgb(255,255,255); stroke:black;stroke-width:1.000000" />
<polygon points="882.759399,388.401794 1015.430298,410.771210 1041.921021,361.069885 922.160889,333.803406 "
style="fill:rgb(255,255,255); stroke:black;stroke-width:1.000000" />
<polygon points="800.089294,711.365723 816.299988,712.832764 842.702515,716.503845 841.614075,668.152344 "
style="fill:rgb(255,255,255); stroke:black;stroke-width:1.000000" />
<polygon points="772.245667,382.994415 751.644958,488.256744 852.963013,509.713898 882.759399,388.401794 "
style="fill:rgb(255,255,255); stroke:black;stroke-width:1.000000" />
<polygon points="872.682434,753.565186 862.628723,757.475098 857.428711,757.265808 864.721436,759.782593 "
style="fill:rgb(255,255,255); stroke:black;stroke-width:1.000000" />
<polygon points="821.600098,727.070312 833.003357,745.469543 836.673950,736.565063 827.243103,716.806213 "
style="fill:rgb(255,255,255); stroke:black;stroke-width:1.000000" />
<polygon points="784.861755,648.359558 757.026001,635.042664 739.758240,636.824463 751.407227,653.006165 "
style="fill:rgb(255,255,255); stroke:black;stroke-width:1.000000" />
<polygon points="714.851990,563.730164 720.015930,545.946777 686.499939,548.156433 692.247314,559.749207 "
style="fill:rgb(255,255,255); stroke:black;stroke-width:1.000000" />
<polygon points="869.768677,724.011230 876.099731,745.301819 891.151184,744.808289 867.030579,725.398560 "
style="fill:rgb(255,255,255); stroke:black;stroke-width:1.000000" />
<polygon points="869.768677,724.011230 866.995483,727.016296 872.682434,753.565186 876.099731,745.301819 "
style="fill:rgb(255,255,255); stroke:black;stroke-width:1.000000" />
<polygon points="917.118286,710.563782 982.530945,707.156677 957.843384,704.398376 867.030579,725.398560 "
style="fill:rgb(255,255,255); stroke:black;stroke-width:1.000000" />
<polygon points="720.741211,563.076843 714.851990,563.730164 692.247314,559.749207 703.024902,563.134766 "
style="fill:rgb(255,255,255); stroke:black;stroke-width:1.000000" />
<polygon points="711.245544,523.942200 708.069763,551.321777 740.073608,545.150024 753.296753,515.880005 "
style="fill:rgb(255,255,255); stroke:black;stroke-width:1.000000" />
<polygon points="842.702515,716.503845 847.996216,721.155151 866.995483,727.016296 869.768677,724.011230 "
style="fill:rgb(255,255,255); stroke:black;stroke-width:1.000000" />
<polygon points="836.673950,736.565063 833.003357,745.469543 846.576355,732.387573 847.996216,721.155151 "
style="fill:rgb(255,255,255); stroke:black;stroke-width:1.000000" />
<polygon points="702.262817,525.887024 703.418152,495.361115 661.697388,510.801453 653.710449,542.153564 "
style="fill:rgb(255,255,255); stroke:black;stroke-width:1.000000" />
<polygon points="705.550903,601.964539 714.997070,626.341980 729.673584,615.570068 "
style="fill:rgb(255,255,255); stroke:black;stroke-width:1.000000" />
<polygon points="702.262817,525.887024 653.710449,542.153564 686.499939,548.156433 720.015930,545.946777 "
style="fill:rgb(255,255,255); stroke:black;stroke-width:1.000000" />
<polygon points="729.673584,615.570068 714.997070,626.341980 736.754089,644.152344 "
style="fill:rgb(255,255,255); stroke:black;stroke-width:1.000000" />
<polygon points="833.003357,745.469543 862.628723,757.475098 859.314331,736.973816 846.576355,732.387573 "
style="fill:rgb(255,255,255); stroke:black;stroke-width:1.000000" />
<polygon points="866.995483,727.016296 859.314331,736.973816 862.628723,757.475098 872.682434,753.565186 "
style="fill:rgb(255,255,255); stroke:black;stroke-width:1.000000" />
<polygon points="842.702515,716.503845 869.768677,724.011230 867.030579,725.398560 841.614075,668.152344 "
style="fill:rgb(255,255,255); stroke:black;stroke-width:1.000000" />
<polygon points="841.614075,668.152344 793.040283,639.650391 784.861755,648.359558 800.089294,711.365723 "
style="fill:rgb(255,255,255); stroke:black;stroke-width:1.000000" />
<polygon points="751.644958,488.256744 727.055847,493.038727 819.964844,539.609070 852.963013,509.713898 "
style="fill:rgb(255,255,255); stroke:black;stroke-width:1.000000" />
<polygon points="847.996216,721.155151 846.576355,732.387573 859.314331,736.973816 866.995483,727.016296 "
style="fill:rgb(255,255,255); stroke:black;stroke-width:1.000000" />
<polygon points="826.299805,604.590271 798.153259,613.624634 784.861755,648.359558 810.297058,646.820984 "
style="fill:rgb(255,255,255); stroke:black;stroke-width:1.000000" />
<polygon points="709.469360,580.198608 705.550903,601.964539 729.673584,615.570068 "
style="fill:rgb(255,255,255); stroke:black;stroke-width:1.000000" />
<polygon points="772.945312,648.985291 784.861755,648.359558 793.040283,639.650391 783.250122,637.920959 "
style="fill:rgb(255,255,255); stroke:black;stroke-width:1.000000" />
<polygon points="771.753296,640.833679 772.945312,648.985291 783.250122,637.920959 782.004761,629.764099 "
style="fill:rgb(255,255,255); stroke:black;stroke-width:1.000000" />
<polygon points="736.754089,644.152344 755.895691,640.859558 729.673584,615.570068 "
style="fill:rgb(255,255,255); stroke:black;stroke-width:1.000000" />
<polygon points="708.069763,551.321777 714.148865,580.506653 733.355286,578.326660 740.073608,545.150024 "
style="fill:rgb(255,255,255); stroke:black;stroke-width:1.000000" />
<polygon points="1060.680664,532.163452 1082.990112,555.530823 1120.335083,491.115509 1082.551514,440.123718 "
style="fill:rgb(255,255,255); stroke:black;stroke-width:1.000000" />
<polygon points="982.530945,707.156677 1036.199707,694.247437 1024.672119,683.433655 957.843384,704.398376 "
style="fill:rgb(255,255,255); stroke:black;stroke-width:1.000000" />
<polygon points="1094.306641,575.459473 1090.952393,626.037476 1135.268921,569.389893 1082.990112,555.530823 "
style="fill:rgb(255,255,255); stroke:black;stroke-width:1.000000" />
<polygon points="798.153259,613.624634 763.290466,616.458496 757.026001,635.042664 784.861755,648.359558 "
style="fill:rgb(255,255,255); stroke:black;stroke-width:1.000000" />
<polygon points="729.329590,577.346436 733.355286,578.326660 714.148865,580.506653 709.469360,580.198608 "
style="fill:rgb(255,255,255); stroke:black;stroke-width:1.000000" />
<polygon points="782.004761,629.764099 783.250122,637.920959 784.887390,623.763733 782.811218,616.119873 "
style="fill:rgb(255,255,255); stroke:black;stroke-width:1.000000" />
<polygon points="729.329590,577.346436 709.469360,580.198608 729.673584,615.570068 "
style="fill:rgb(255,255,255); stroke:black;stroke-width:1.000000" />
<polygon points="783.250122,637.920959 793.040283,639.650391 798.786865,624.336243 784.887390,623.763733 "
style="fill:rgb(255,255,255); stroke:black;stroke-width:1.000000" />
<polygon points="755.895691,640.859558 757.026001,635.042664 763.290466,616.458496 764.070618,620.601562 "
style="fill:rgb(255,255,255); stroke:black;stroke-width:1.000000" />
<polygon points="727.055847,493.038727 703.418152,495.361115 737.313965,463.591156 756.302979,467.014252 "
style="fill:rgb(255,255,255); stroke:black;stroke-width:1.000000" />
<polygon points="740.857056,562.414368 739.020630,557.171082 714.851990,563.730164 720.741211,563.076843 "
style="fill:rgb(255,255,255); stroke:black;stroke-width:1.000000" />
<polygon points="755.895691,640.859558 764.070618,620.601562 729.673584,615.570068 "
style="fill:rgb(255,255,255); stroke:black;stroke-width:1.000000" />
<polygon points="798.786865,624.336243 793.040283,639.650391 841.614075,668.152344 833.812195,632.126282 "
style="fill:rgb(255,255,255); stroke:black;stroke-width:1.000000" />
<polygon points="739.020630,557.171082 742.128418,542.854492 720.015930,545.946777 714.851990,563.730164 "
style="fill:rgb(255,255,255); stroke:black;stroke-width:1.000000" />
<polygon points="753.296753,515.880005 740.073608,545.150024 777.944214,571.563477 802.576355,548.817261 "
style="fill:rgb(255,255,255); stroke:black;stroke-width:1.000000" />
<polygon points="939.404236,689.721191 894.603943,669.430176 892.999756,662.544617 950.340210,687.429138 "
style="fill:rgb(255,255,255); stroke:black;stroke-width:1.000000" />
<polygon points="1015.430298,410.771210 998.801819,524.403259 1060.680664,532.163452 1082.551514,440.123718 "
style="fill:rgb(255,255,255); stroke:black;stroke-width:1.000000" />
<polygon points="802.576355,548.817261 777.944214,571.563477 798.153259,613.624634 826.299805,604.590271 "
style="fill:rgb(255,255,255); stroke:black;stroke-width:1.000000" />
<polygon points="782.811218,616.119873 784.887390,623.763733 780.955139,602.952881 780.068115,598.913757 "
style="fill:rgb(255,255,255); stroke:black;stroke-width:1.000000" />
<polygon points="894.603943,669.430176 882.241882,656.507629 841.614075,668.152344 867.030579,725.398560 "
style="fill:rgb(255,255,255); stroke:black;stroke-width:1.000000" />
<polygon points="740.073608,545.150024 733.355286,578.326660 752.685120,592.393738 777.944214,571.563477 "
style="fill:rgb(255,255,255); stroke:black;stroke-width:1.000000" />
<polygon points="751.086609,593.960327 729.329590,577.346436 729.673584,615.570068 "
style="fill:rgb(255,255,255); stroke:black;stroke-width:1.000000" />
<polygon points="894.603943,669.430176 867.030579,725.398560 957.843384,704.398376 947.764282,692.469849 "
style="fill:rgb(255,255,255); stroke:black;stroke-width:1.000000" />
<polygon points="764.070618,620.601562 751.086609,593.960327 729.673584,615.570068 "
style="fill:rgb(255,255,255); stroke:black;stroke-width:1.000000" />
<polygon points="777.944214,571.563477 752.685120,592.393738 763.290466,616.458496 798.153259,613.624634 "
style="fill:rgb(255,255,255); stroke:black;stroke-width:1.000000" />
<polygon points="751.086609,593.960327 752.685120,592.393738 733.355286,578.326660 729.329590,577.346436 "
style="fill:rgb(255,255,255); stroke:black;stroke-width:1.000000" />
<polygon points="753.324158,569.047180 753.632629,564.151733 739.020630,557.171082 740.857056,562.414368 "
style="fill:rgb(255,255,255); stroke:black;stroke-width:1.000000" />
<polygon points="764.070618,620.601562 763.290466,616.458496 752.685120,592.393738 751.086609,593.960327 "
style="fill:rgb(255,255,255); stroke:black;stroke-width:1.000000" />
<polygon points="784.887390,623.763733 798.786865,624.336243 797.792786,601.324402 780.955139,602.952881 "
style="fill:rgb(255,255,255); stroke:black;stroke-width:1.000000" />
<polygon points="984.882690,676.917725 939.404236,689.721191 950.340210,687.429138 1008.722534,672.304321 "
style="fill:rgb(255,255,255); stroke:black;stroke-width:1.000000" />
<polygon points="894.603943,669.430176 875.350403,627.601562 868.537537,612.063904 892.999756,662.544617 "
style="fill:rgb(255,255,255); stroke:black;stroke-width:1.000000" />
<polygon points="852.963013,509.713898 819.964844,539.609070 851.571472,557.945618 "
style="fill:rgb(255,255,255); stroke:black;stroke-width:1.000000" />
<polygon points="780.068115,598.913757 780.955139,602.952881 770.592407,580.693665 768.056274,580.567078 "
style="fill:rgb(255,255,255); stroke:black;stroke-width:1.000000" />
<polygon points="947.764282,692.469849 957.843384,704.398376 1024.672119,683.433655 984.188293,682.033264 "
style="fill:rgb(255,255,255); stroke:black;stroke-width:1.000000" />
<polygon points="753.632629,564.151733 761.030884,550.440674 742.128418,542.854492 739.020630,557.171082 "
style="fill:rgb(255,255,255); stroke:black;stroke-width:1.000000" />
<polygon points="1036.199707,694.247437 1101.512695,642.985291 1059.850952,647.087952 1024.672119,683.433655 "
style="fill:rgb(255,255,255); stroke:black;stroke-width:1.000000" />
<polygon points="768.056274,580.567078 770.592407,580.693665 753.632629,564.151733 753.324158,569.047180 "
style="fill:rgb(255,255,255); stroke:black;stroke-width:1.000000" />
<polygon points="841.614075,668.152344 882.241882,656.507629 871.647949,637.754761 833.812195,632.126282 "
style="fill:rgb(255,255,255); stroke:black;stroke-width:1.000000" />
<polygon points="726.967041,509.820679 702.262817,525.887024 720.015930,545.946777 742.128418,542.854492 "
style="fill:rgb(255,255,255); stroke:black;stroke-width:1.000000" />
<polygon points="852.963013,509.713898 998.801819,524.403259 1015.430298,410.771210 882.759399,388.401794 "
style="fill:rgb(255,255,255); stroke:black;stroke-width:1.000000" />
<polygon points="851.571472,557.945618 880.019775,549.116577 852.963013,509.713898 "
style="fill:rgb(255,255,255); stroke:black;stroke-width:1.000000" />
<polygon points="780.955139,602.952881 797.792786,601.324402 783.536926,571.284607 770.592407,580.693665 "
style="fill:rgb(255,255,255); stroke:black;stroke-width:1.000000" />
<polygon points="770.592407,580.693665 783.536926,571.284607 761.030884,550.440674 753.632629,564.151733 "
style="fill:rgb(255,255,255); stroke:black;stroke-width:1.000000" />
<polygon points="833.812195,632.126282 823.893677,602.717773 797.792786,601.324402 798.786865,624.336243 "
style="fill:rgb(255,255,255); stroke:black;stroke-width:1.000000" />
<polygon points="894.603943,669.430176 947.764282,692.469849 943.363647,686.804810 896.409424,672.796936 "
style="fill:rgb(255,255,255); stroke:black;stroke-width:1.000000" />
<polygon points="1057.069336,561.435059 1094.306641,575.459473 1082.990112,555.530823 1060.680664,532.163452 "
style="fill:rgb(255,255,255); stroke:black;stroke-width:1.000000" />
<polygon points="726.967041,509.820679 737.313965,463.591156 703.418152,495.361115 702.262817,525.887024 "
style="fill:rgb(255,255,255); stroke:black;stroke-width:1.000000" />
<polygon points="947.764282,692.469849 984.188293,682.033264 974.939575,678.591797 943.363647,686.804810 "
style="fill:rgb(255,255,255); stroke:black;stroke-width:1.000000" />
<polygon points="882.241882,656.507629 894.603943,669.430176 896.409424,672.796936 885.796753,657.303711 "
style="fill:rgb(255,255,255); stroke:black;stroke-width:1.000000" />
<polygon points="819.964844,539.609070 813.216125,551.399841 832.984741,570.399597 851.571472,557.945618 "
style="fill:rgb(255,255,255); stroke:black;stroke-width:1.000000" />
<polygon points="896.409424,672.796936 943.363647,686.804810 944.927002,678.287781 903.416504,665.918091 "
style="fill:rgb(255,255,255); stroke:black;stroke-width:1.000000" />
<polygon points="1103.686768,590.945557 1101.512695,642.985291 1090.952393,626.037476 1094.306641,575.459473 "
style="fill:rgb(255,255,255); stroke:black;stroke-width:1.000000" />
<polygon points="885.796753,657.303711 896.409424,672.796936 903.416504,665.918091 892.829468,650.452637 "
style="fill:rgb(255,255,255); stroke:black;stroke-width:1.000000" />
<polygon points="1004.834534,638.835876 984.882690,676.917725 1008.722534,672.304321 1033.390869,625.600220 "
style="fill:rgb(255,255,255); stroke:black;stroke-width:1.000000" />
<polygon points="931.916138,673.554016 907.362915,663.551392 894.603943,669.430176 939.404236,689.721191 "
style="fill:rgb(255,255,255); stroke:black;stroke-width:1.000000" />
<polygon points="871.647949,637.754761 882.241882,656.507629 885.796753,657.303711 879.660828,641.273254 "
style="fill:rgb(255,255,255); stroke:black;stroke-width:1.000000" />
<polygon points="756.302979,467.014252 737.313965,463.591156 780.583252,484.150879 791.370789,481.530243 "
style="fill:rgb(255,255,255); stroke:black;stroke-width:1.000000" />
<polygon points="943.363647,686.804810 974.939575,678.591797 971.977600,671.194153 944.927002,678.287781 "
style="fill:rgb(255,255,255); stroke:black;stroke-width:1.000000" />
<polygon points="984.188293,682.033264 1024.672119,683.433655 1059.850952,647.087952 1025.401367,653.070190 "
style="fill:rgb(255,255,255); stroke:black;stroke-width:1.000000" />
<polygon points="993.519897,532.678284 1057.069336,561.435059 1060.680664,532.163452 998.801819,524.403259 "
style="fill:rgb(255,255,255); stroke:black;stroke-width:1.000000" />
<polygon points="791.370789,481.530243 780.583252,484.150879 813.216125,551.399841 819.964844,539.609070 "
style="fill:rgb(255,255,255); stroke:black;stroke-width:1.000000" />
<polygon points="875.350403,627.601562 891.304871,590.802490 888.754700,562.762695 868.537537,612.063904 "
style="fill:rgb(255,255,255); stroke:black;stroke-width:1.000000" />
<polygon points="832.984741,570.399597 848.535828,557.124146 880.019775,549.116577 851.571472,557.945618 "
style="fill:rgb(255,255,255); stroke:black;stroke-width:1.000000" />
<polygon points="879.660828,641.273254 885.796753,657.303711 892.829468,650.452637 890.007935,635.695068 "
style="fill:rgb(255,255,255); stroke:black;stroke-width:1.000000" />
<polygon points="867.173340,613.636902 823.893677,602.717773 833.812195,632.126282 871.647949,637.754761 "
style="fill:rgb(255,255,255); stroke:black;stroke-width:1.000000" />
<polygon points="880.019775,549.116577 993.519897,532.678284 998.801819,524.403259 852.963013,509.713898 "
style="fill:rgb(255,255,255); stroke:black;stroke-width:1.000000" />
<polygon points="958.485962,667.570801 931.916138,673.554016 939.404236,689.721191 984.882690,676.917725 "
style="fill:rgb(255,255,255); stroke:black;stroke-width:1.000000" />
<polygon points="726.967041,509.820679 742.128418,542.854492 761.030884,550.440674 755.779846,523.288513 "
style="fill:rgb(255,255,255); stroke:black;stroke-width:1.000000" />
<polygon points="823.893677,602.717773 790.359253,579.711243 783.536926,571.284607 797.792786,601.324402 "
style="fill:rgb(255,255,255); stroke:black;stroke-width:1.000000" />
<polygon points="907.362915,663.551392 897.580078,641.136597 875.350403,627.601562 894.603943,669.430176 "
style="fill:rgb(255,255,255); stroke:black;stroke-width:1.000000" />
<polygon points="984.188293,682.033264 1025.401367,653.070190 1008.616760,653.361206 974.939575,678.591797 "
style="fill:rgb(255,255,255); stroke:black;stroke-width:1.000000" />
<polygon points="867.173340,613.636902 871.647949,637.754761 879.660828,641.273254 880.894897,620.824646 "
style="fill:rgb(255,255,255); stroke:black;stroke-width:1.000000" />
<polygon points="974.939575,678.591797 1008.616760,653.361206 1000.162659,646.334534 971.977600,671.194153 "
style="fill:rgb(255,255,255); stroke:black;stroke-width:1.000000" />
<polygon points="755.779846,523.288513 761.030884,550.440674 783.536926,571.284607 790.359253,579.711243 "
style="fill:rgb(255,255,255); stroke:black;stroke-width:1.000000" />
<polygon points="880.894897,620.824646 879.660828,641.273254 890.007935,635.695068 888.245789,618.134827 "
style="fill:rgb(255,255,255); stroke:black;stroke-width:1.000000" />
<polygon points="823.893677,602.717773 832.984741,570.399597 813.216125,551.399841 790.359253,579.711243 "
style="fill:rgb(255,255,255); stroke:black;stroke-width:1.000000" />
<polygon points="968.307251,647.176392 958.485962,667.570801 984.882690,676.917725 1004.834534,638.835876 "
style="fill:rgb(255,255,255); stroke:black;stroke-width:1.000000" />
<polygon points="1101.512695,642.985291 1103.686768,590.945557 1061.428101,609.594727 1059.850952,647.087952 "
style="fill:rgb(255,255,255); stroke:black;stroke-width:1.000000" />
<polygon points="897.580078,641.136597 905.770203,619.518616 891.304871,590.802490 875.350403,627.601562 "
style="fill:rgb(255,255,255); stroke:black;stroke-width:1.000000" />
<polygon points="984.749207,597.579041 1004.834534,638.835876 1033.390869,625.600220 1009.628601,571.319214 "
style="fill:rgb(255,255,255); stroke:black;stroke-width:1.000000" />
<polygon points="1008.616760,653.361206 1010.429382,629.831482 1002.582397,627.931580 1000.162659,646.334534 "
style="fill:rgb(255,255,255); stroke:black;stroke-width:1.000000" />
<polygon points="1025.401367,653.070190 1030.576294,624.619568 1010.429382,629.831482 1008.616760,653.361206 "
style="fill:rgb(255,255,255); stroke:black;stroke-width:1.000000" />
<polygon points="755.779846,523.288513 780.583252,484.150879 737.313965,463.591156 726.967041,509.820679 "
style="fill:rgb(255,255,255); stroke:black;stroke-width:1.000000" />
<polygon points="925.793579,651.921387 902.419373,668.907837 929.384155,681.427124 "
style="fill:rgb(255,255,255); stroke:black;stroke-width:1.000000" />
<polygon points="848.535828,557.124146 832.984741,570.399597 823.893677,602.717773 848.342529,589.654907 "
style="fill:rgb(255,255,255); stroke:black;stroke-width:1.000000" />
<polygon points="875.850281,586.918152 867.173340,613.636902 880.894897,620.824646 888.945740,601.143433 "
style="fill:rgb(255,255,255); stroke:black;stroke-width:1.000000" />
<polygon points="888.945740,601.143433 880.894897,620.824646 888.245789,618.134827 898.784363,603.167175 "
style="fill:rgb(255,255,255); stroke:black;stroke-width:1.000000" />
<polygon points="790.359253,579.711243 813.216125,551.399841 780.583252,484.150879 755.779846,523.288513 "
style="fill:rgb(255,255,255); stroke:black;stroke-width:1.000000" />
<polygon points="1025.401367,653.070190 1059.850952,647.087952 1061.428101,609.594727 1030.576294,624.619568 "
style="fill:rgb(255,255,255); stroke:black;stroke-width:1.000000" />
<polygon points="929.384155,681.427124 959.135010,672.584717 925.793579,651.921387 "
style="fill:rgb(255,255,255); stroke:black;stroke-width:1.000000" />
<polygon points="891.304871,590.802490 936.913757,577.381836 947.902466,545.926086 888.754700,562.762695 "
style="fill:rgb(255,255,255); stroke:black;stroke-width:1.000000" />
<polygon points="875.850281,586.918152 848.342529,589.654907 823.893677,602.717773 867.173340,613.636902 "
style="fill:rgb(255,255,255); stroke:black;stroke-width:1.000000" />
<polygon points="925.793579,651.921387 890.221008,643.933594 902.419373,668.907837 "
style="fill:rgb(255,255,255); stroke:black;stroke-width:1.000000" />
<polygon points="1055.391235,572.677002 1103.686768,590.945557 1094.306641,575.459473 1057.069336,561.435059 "
style="fill:rgb(255,255,255); stroke:black;stroke-width:1.000000" />
<polygon points="925.793579,651.921387 959.135010,672.584717 968.976379,650.064941 "
style="fill:rgb(255,255,255); stroke:black;stroke-width:1.000000" />
<polygon points="1010.429382,629.831482 1002.742065,612.701599 994.886414,613.045776 1002.582397,627.931580 "
style="fill:rgb(255,255,255); stroke:black;stroke-width:1.000000" />
<polygon points="936.913757,577.381836 984.749207,597.579041 1009.628601,571.319214 947.902466,545.926086 "
style="fill:rgb(255,255,255); stroke:black;stroke-width:1.000000" />
<polygon points="957.891113,623.323730 968.307251,647.176392 1004.834534,638.835876 984.749207,597.579041 "
style="fill:rgb(255,255,255); stroke:black;stroke-width:1.000000" />
<polygon points="925.793579,651.921387 900.558594,620.527283 890.221008,643.933594 "
style="fill:rgb(255,255,255); stroke:black;stroke-width:1.000000" />
<polygon points="1030.576294,624.619568 1017.650146,603.564758 1002.742065,612.701599 1010.429382,629.831482 "
style="fill:rgb(255,255,255); stroke:black;stroke-width:1.000000" />
<polygon points="907.672302,590.143982 888.945740,601.143433 898.784363,603.167175 911.129944,595.907166 "
style="fill:rgb(255,255,255); stroke:black;stroke-width:1.000000" />
<polygon points="905.770203,619.518616 930.370789,612.607971 936.913757,577.381836 891.304871,590.802490 "
style="fill:rgb(255,255,255); stroke:black;stroke-width:1.000000" />
<polygon points="902.195068,573.633667 875.850281,586.918152 888.945740,601.143433 907.672302,590.143982 "
style="fill:rgb(255,255,255); stroke:black;stroke-width:1.000000" />
<polygon points="968.307251,647.176392 957.891113,623.323730 958.494263,623.982178 968.976379,650.064941 "
style="fill:rgb(255,255,255); stroke:black;stroke-width:1.000000" />
<polygon points="982.247620,537.331726 1055.391235,572.677002 1057.069336,561.435059 993.519897,532.678284 "
style="fill:rgb(255,255,255); stroke:black;stroke-width:1.000000" />
<polygon points="925.793579,651.921387 968.976379,650.064941 958.494263,623.982178 "
style="fill:rgb(255,255,255); stroke:black;stroke-width:1.000000" />
<polygon points="930.370789,612.607971 957.891113,623.323730 984.749207,597.579041 936.913757,577.381836 "
style="fill:rgb(255,255,255); stroke:black;stroke-width:1.000000" />
<polygon points="927.944519,588.794800 907.672302,590.143982 911.129944,595.907166 929.019287,594.187927 "
style="fill:rgb(255,255,255); stroke:black;stroke-width:1.000000" />
<polygon points="930.370789,612.607971 905.770203,619.518616 900.558594,620.527283 927.533813,611.817993 "
style="fill:rgb(255,255,255); stroke:black;stroke-width:1.000000" />
<polygon points="1002.742065,612.701599 952.053772,604.192017 952.348206,602.468933 994.886414,613.045776 "
style="fill:rgb(255,255,255); stroke:black;stroke-width:1.000000" />
<polygon points="925.793579,651.921387 927.533813,611.817993 900.558594,620.527283 "
style="fill:rgb(255,255,255); stroke:black;stroke-width:1.000000" />
<polygon points="1030.576294,624.619568 1061.428101,609.594727 1038.396606,606.458679 1017.650146,603.564758 "
style="fill:rgb(255,255,255); stroke:black;stroke-width:1.000000" />
<polygon points="1017.650146,603.564758 960.276367,585.583069 952.053772,604.192017 1002.742065,612.701599 "
style="fill:rgb(255,255,255); stroke:black;stroke-width:1.000000" />
<polygon points="927.096436,572.996948 902.195068,573.633667 907.672302,590.143982 927.944519,588.794800 "
style="fill:rgb(255,255,255); stroke:black;stroke-width:1.000000" />
<polygon points="925.793579,651.921387 958.494263,623.982178 927.533813,611.817993 "
style="fill:rgb(255,255,255); stroke:black;stroke-width:1.000000" />
<polygon points="957.891113,623.323730 930.370789,612.607971 927.533813,611.817993 958.494263,623.982178 "
style="fill:rgb(255,255,255); stroke:black;stroke-width:1.000000" />
<polygon points="952.053772,604.192017 927.944519,588.794800 929.019287,594.187927 952.348206,602.468933 "
style="fill:rgb(255,255,255); stroke:black;stroke-width:1.000000" />
<polygon points="960.276367,585.583069 927.096436,572.996948 927.944519,588.794800 952.053772,604.192017 "
style="fill:rgb(255,255,255); stroke:black;stroke-width:1.000000" />
<polygon points="875.850281,586.918152 902.195068,573.633667 874.470093,541.861511 848.342529,589.654907 "
style="fill:rgb(255,255,255); stroke:black;stroke-width:1.000000" />
<polygon points="1103.686768,590.945557 1055.391235,572.677002 1038.396606,606.458679 1061.428101,609.594727 "
style="fill:rgb(255,255,255); stroke:black;stroke-width:1.000000" />
<polygon points="871.336304,497.200195 848.535828,557.124146 848.342529,589.654907 874.470093,541.861511 "
style="fill:rgb(255,255,255); stroke:black;stroke-width:1.000000" />
<polygon points="923.481934,489.562256 982.247620,537.331726 993.519897,532.678284 945.027832,493.385437 "
style="fill:rgb(255,255,255); stroke:black;stroke-width:1.000000" />
<polygon points="871.336304,497.200195 923.481934,489.562256 945.027832,493.385437 901.221680,497.190826 "
style="fill:rgb(255,255,255); stroke:black;stroke-width:1.000000" />
<polygon points="1017.650146,603.564758 1038.396606,606.458679 953.522522,566.037720 960.276367,585.583069 "
style="fill:rgb(255,255,255); stroke:black;stroke-width:1.000000" />
<polygon points="902.195068,573.633667 927.096436,572.996948 909.601013,537.909241 874.470093,541.861511 "
style="fill:rgb(255,255,255); stroke:black;stroke-width:1.000000" />
<polygon points="960.276367,585.583069 953.522522,566.037720 909.601013,537.909241 927.096436,572.996948 "
style="fill:rgb(255,255,255); stroke:black;stroke-width:1.000000" />
<polygon points="1055.391235,572.677002 982.247620,537.331726 953.522522,566.037720 1038.396606,606.458679 "
style="fill:rgb(255,255,255); stroke:black;stroke-width:1.000000" />
<polygon points="923.481934,489.562256 871.336304,497.200195 874.470093,541.861511 909.601013,537.909241 "
style="fill:rgb(255,255,255); stroke:black;stroke-width:1.000000" />
<polygon points="982.247620,537.331726 923.481934,489.562256 909.601013,537.909241 953.522522,566.037720 "
style="fill:rgb(255,255,255); stroke:black;stroke-width:1.000000" />
</svg>