<?xml version="1.0" standalone="no"?>
    <!DOCTYPE svg PUBLIC "-//W3C//DTD SVG 1.1//EN" "http://www.w3.org/Graphics/SVG/1.1/DTD/svg11.dtd">
<svg xmlns="http://www.w3.org/2000/svg" version="1.1" width="1280.000000" height="1080.000000">
<polygon points="470.735535,444.739624 529.049683,423.551910 527.975159,496.619110 469.120758,516.930786 "
style="fill:rgb(255,255,255); stroke:rgb(0,0,0);stroke-width:1.000000" />
<polygon points="624.126404,435.981964 651.717285,426.274475 651.931458,565.004150 623.835754,573.941040 "
style="fill:rgb(255,255,255); stroke:rgb(0,0,0);stroke-width:1.000000" />
<polygon points="651.717285,426.274475 744.925049,472.561249 746.788879,607.596985 651.931458,565.004150 "
style="fill:rgb(255,255,255); stroke:rgb(0,0,0);stroke-width:1.000000" />
<polygon points="623.835754,573.941040 651.931458,565.004150 746.788879,607.596985 718.974792,615.963318 "
style="fill:rgb(255,255,255); stroke:rgb(0,0,0);stroke-width:1.000000" />
<polygon points="717.605652,481.659546 744.925049,472.561249 651.717285,426.274475 624.126404,435.981964 "
style="fill:rgb(255,255,255); stroke:rgb(0,0,0);stroke-width:1.000000" />
<polygon points="744.925049,472.561249 717.605591,481.659546 718.974792,615.963318 746.788879,607.596985 "
style="fill:rgb(255,255,255); stroke:rgb(0,0,0);stroke-width:1.000000" />
<polygon points="529.049683,423.551910 801.650757,553.700562 803.073242,621.296082 527.975159,496.619110 "
style="fill:rgb(255,255,255); stroke:rgb(0,0,0);stroke-width:1.000000" />
<polygon points="623.907043,540.096313 623.835754,573.941040 565.188965,592.595886 565.513428,559.154175 "
style="fill:rgb(255,255,255); stroke:rgb(0,0,0);stroke-width:1.000000" />
<polygon points="565.189026,592.595886 623.835754,573.941040 718.974792,615.963318 660.875977,633.439087 "
style="fill:rgb(255,255,255); stroke:rgb(0,0,0);stroke-width:1.000000" />
<polygon points="660.788635,600.888062 660.875977,633.439087 718.974792,615.963318 718.639038,583.029724 "
style="fill:rgb(255,255,255); stroke:rgb(0,0,0);stroke-width:1.000000" />
<polygon points="469.120758,516.930786 527.975159,496.619110 803.073242,621.296082 745.781006,638.117737 "
style="fill:rgb(255,255,255); stroke:rgb(0,0,0);stroke-width:1.000000" />
<polygon points="624.057068,468.911560 623.907043,540.096313 565.513428,559.154175 566.195862,488.803192 "
style="fill:rgb(255,255,255); stroke:rgb(0,0,0);stroke-width:1.000000" />
<polygon points="660.604797,532.381470 660.788635,600.888062 718.639038,583.029724 717.932556,513.730774 "
style="fill:rgb(255,255,255); stroke:rgb(0,0,0);stroke-width:1.000000" />
<polygon points="744.870728,571.277832 801.650757,553.700562 529.049683,423.551910 470.735535,444.739624 "
style="fill:rgb(255,255,255); stroke:rgb(0,0,0);stroke-width:1.000000" />
<polygon points="566.511658,456.253021 624.126404,435.981964 624.057068,468.911560 566.195862,488.803192 "
style="fill:rgb(255,255,255); stroke:rgb(0,0,0);stroke-width:1.000000" />
<polygon points="660.519714,500.671143 717.605652,481.659546 624.126404,435.981964 566.511658,456.253021 "
style="fill:rgb(255,255,255); stroke:rgb(0,0,0);stroke-width:1.000000" />
<polygon points="717.605591,481.659546 660.519714,500.671143 660.604797,532.381470 717.932556,513.730774 "
style="fill:rgb(255,255,255); stroke:rgb(0,0,0);stroke-width:1.000000" />
<polygon points="744.870728,571.277832 470.735535,444.739624 469.120758,516.930786 745.781006,638.117737 "
style="fill:rgb(255,255,255); stroke:rgb(0,0,0);stroke-width:1.000000" />
<polygon points="540.048523,465.563751 566.511658,456.253021 565.188965,592.595886 538.262024,601.161011 "
style="fill:rgb(255,255,255); stroke:rgb(0,0,0);stroke-width:1.000000" />
<polygon points="538.262024,601.161011 565.189026,592.595886 660.875977,633.439087 634.182495,641.468323 "
style="fill:rgb(255,255,255); stroke:rgb(0,0,0);stroke-width:1.000000" />
<polygon points="634.282410,509.409088 660.519714,500.671143 566.511658,456.253021 540.048523,465.563751 "
style="fill:rgb(255,255,255); stroke:rgb(0,0,0);stroke-width:1.000000" />
<polygon points="634.282410,509.409088 540.048523,465.563751 538.262024,601.161011 634.182495,641.468323 "
style="fill:rgb(255,255,255); stroke:rgb(0,0,0);stroke-width:1.000000" />
<polygon points="660.519714,500.671143 634.282410,509.409088 634.182495,641.468323 660.875977,633.439087 "
style="fill:rgb(255,255,255); stroke:rgb(0,0,0);stroke-width:1.000000" />
<polygon points="801.650757,553.700562 744.870728,571.277832 745.781006,638.117737 803.073242,621.296082 "
style="fill:rgb(255,255,255); stroke:rgb(0,0,0);stroke-width:1.000000" />
</svg>